<?xml version="1.0" encoding="UTF-8"?>
<svg id="Layer_2" data-name="Layer 2" xmlns="http://www.w3.org/2000/svg" viewBox="0 0 150.73 211.77">
  <defs>
    <style>
      .cls-1 {
        stroke-width: 0px;
      }

      .cls-2 {
        fill: none;
        stroke: #000;
        stroke-miterlimit: 10;
        stroke-width: 16px;
      }
    </style>
  </defs>
  <g id="Layer_1-2" data-name="Layer 1">
    <g>
      <g>
        <path class="cls-1" d="M54.7,108.78c0-3.17.29-4.61,1.44-6.26,1.37-2.09,3.89-3.46,6.48-3.46,2.38,0,4.54,1.08,6.05,2.88,1.37,1.73,1.87,3.38,1.87,6.34v29.38c0,3.82-.36,5.4-1.73,7.2-1.44,1.87-3.74,2.95-6.19,2.95s-4.61-1.08-6.26-3.24l-12.53-16.06v10.08c0,3.17-.43,4.61-1.8,6.34-1.51,1.8-3.74,2.88-6.12,2.88s-4.82-1.15-6.34-3.1c-1.3-1.8-1.66-3.24-1.66-6.77v-30.39c0-5.11,3.31-8.5,8.28-8.5,2.3,0,4.1.94,5.9,3.17l12.6,15.48v-8.93Z"/>
        <path class="cls-1" d="M83.43,185.8c-4.39,0-7.85-3.46-7.85-7.92,0-1.37.36-2.81,1.01-4.18l15.05-31.9c1.37-2.95,4.1-4.75,7.27-4.75s5.98,1.8,7.42,4.82l15.12,32.26c.65,1.22.94,2.59.94,3.82,0,4.32-3.6,7.85-7.99,7.85-3.67,0-5.83-1.73-8.06-6.62h-14.69c-2.02,4.68-4.39,6.62-8.21,6.62ZM101.36,167.73l-2.45-5.76-2.45,5.76h4.9Z"/>
      </g>
      <polygon class="cls-1" points="110.1 33.44 45.14 33.44 71.36 4.35 86.27 6.59 110.1 33.44"/>
      <path class="cls-2" d="M12.27,75.93L59.64,15.65c8.01-10.19,23.44-10.2,31.45,0,15.46,19.67,38.05,48.43,47.37,60.29,2.77,3.52,4.27,7.87,4.27,12.35v95.48c0,11.05-8.95,20-20,20H28c-11.05,0-20-8.95-20-20v-95.48c0-4.48,1.5-8.83,4.27-12.36Z"/>
      <line class="cls-2" x1="8" y1="81.59" x2="142.73" y2="81.59"/>
    </g>
  </g>
</svg>